<?xml version="1.0" encoding="utf-8"?>
<!-- Generator: Adobe Illustrator 25.3.1, SVG Export Plug-In . SVG Version: 6.00 Build 0)  -->
<svg version="1.1" id="Layer_1" xmlns="http://www.w3.org/2000/svg" xmlns:xlink="http://www.w3.org/1999/xlink" x="0px" y="0px"
	 viewBox="0 0 100 100" style="enable-background:new 0 0 100 100;" xml:space="preserve">
<style type="text/css">
	.st0{fill:#FFFFFF;}
</style>
<g id="Layer_2_1_">
</g>
<g id="Layer_1_1_">
	<rect x="6" y="4.8" class="st0" width="16" height="16"/>
	<rect x="24" y="4.8" class="st0" width="16" height="16"/>
	<rect x="42" y="4.8" class="st0" width="16" height="16"/>
	<rect x="60" y="4.8" class="st0" width="16" height="16"/>
	<rect x="78" y="4.8" class="st0" width="16" height="16"/>
	<rect x="78" y="22.8" class="st0" width="16" height="16"/>
	<rect x="60" y="22.8" class="st0" width="16" height="16"/>
	<rect x="42" y="22.8" class="st0" width="16" height="16"/>
	<rect x="24" y="22.8" class="st0" width="16" height="16"/>
	<rect x="6" y="22.8" class="st0" width="16" height="16"/>
	<rect x="6" y="40.8" class="st0" width="16" height="16"/>
	<rect x="24" y="40.8" class="st0" width="16" height="16"/>
	<rect x="42" y="40.8" class="st0" width="16" height="16"/>
	<rect x="78" y="40.8" class="st0" width="16" height="16"/>
	<rect x="78" y="58.8" class="st0" width="16" height="16"/>
	<rect x="42" y="58.8" class="st0" width="16" height="16"/>
	<rect x="60" y="58.8" class="st0" width="16" height="16"/>
	<rect x="6" y="58.8" class="st0" width="16" height="16"/>
	<rect x="6" y="76.8" class="st0" width="16" height="16"/>
	<rect x="24" y="58.8" class="st0" width="16" height="16"/>
	<rect x="24" y="76.8" class="st0" width="16" height="16"/>
	<rect x="42" y="76.8" class="st0" width="16" height="16"/>
	<rect x="60" y="76.8" class="st0" width="16" height="16"/>
	<rect x="78" y="76.8" class="st0" width="16" height="16"/>
	<rect x="60" y="40.8" class="st0" width="16" height="16"/>
</g>
</svg>
